<?xml version="1.0" encoding="UTF-8"?>
<svg width="96px" height="24px" viewBox="0 0 96 24" version="1.1" xmlns="http://www.w3.org/2000/svg" xmlns:xlink="http://www.w3.org/1999/xlink">
    <title>logo</title>
    <defs>
        <linearGradient x1="22.0012082%" y1="-18.9276697%" x2="70.0555556%" y2="109.608623%" id="linearGradient-1">
            <stop stop-color="#79FDBF" offset="0%"></stop>
            <stop stop-color="#03A65A" offset="100%"></stop>
        </linearGradient>
        <linearGradient x1="29.9444444%" y1="-4.77063215%" x2="65.3048292%" y2="102.605483%" id="linearGradient-2">
            <stop stop-color="#008BD3" offset="0%"></stop>
            <stop stop-color="#79D1FF" offset="100%"></stop>
        </linearGradient>
    </defs>
    <g id="logo" stroke="none" stroke-width="1" fill="none" fill-rule="evenodd">
        <g fill-rule="nonzero">
            <g id="编组-7">
                <path d="M1.72727273,0 C2.64147135,0 3.38978802,0.709956137 3.45056059,1.60840379 L3.45454545,1.72661871 L3.45454545,19.6834532 C3.45454545,20.1602458 3.84120863,20.5467626 4.31818182,20.5467626 C4.7633568,20.5467626 5.12986171,20.2100635 5.17675048,19.7775203 L5.18181818,19.6834532 L5.18181818,14.6509352 C5.18181818,13.7370827 5.89204324,12.9890496 6.79083122,12.9283 L6.90909091,12.9243168 L13.4727273,12.9243168 C14.4266737,12.9243168 15.2,13.69735 15.2,14.6509352 C15.2,15.5647877 14.4897749,16.3128208 13.590987,16.3735704 L13.4727273,16.3775536 L8.63599042,16.3769344 L8.63636364,19.6834532 C8.63636364,22.0119752 6.79192385,23.9098683 4.48381654,23.996883 L4.31818182,24 C1.98877785,24 0.0901658807,22.1562586 0.00311816544,19.8490252 L0,19.6834532 L0,1.72661871 C0,0.773033525 0.773326341,0 1.72727273,0 Z" id="路径" fill="url(#linearGradient-1)"></path>
                <path d="M7.32727273,0 C8.24147135,0 8.98978802,0.709956137 9.05056059,1.60840379 L9.05454545,1.72661871 L9.05454545,19.6834532 C9.05454545,20.1602458 9.44120863,20.5467626 9.91818182,20.5467626 C10.3633568,20.5467626 10.7298617,20.2100635 10.7767505,19.7775203 L10.7818182,19.6834532 L10.7818182,14.6509352 C10.7818182,13.7370827 11.4920432,12.9890496 12.3908312,12.9283 L12.5090909,12.9243168 L19.0727273,12.9243168 C20.0266737,12.9243168 20.8,13.69735 20.8,14.6509352 C20.8,15.5647877 20.0897749,16.3128208 19.190987,16.3735704 L19.0727273,16.3775536 L14.2359904,16.3769344 L14.2363636,19.6834532 C14.2363636,22.0119752 12.3919239,23.9098683 10.0838165,23.996883 L9.91818182,24 C7.58877785,24 5.69016588,22.1562586 5.60311817,19.8490252 L5.6,19.6834532 L5.6,1.72661871 C5.6,0.773033525 6.37332634,0 7.32727273,0 Z" id="路径" fill="url(#linearGradient-2)" transform="translate(13.200000, 12.000000) scale(-1, -1) translate(-13.200000, -12.000000) "></path>
            </g>
            <path d="M33.5538449,19.7363752 L33.5538449,13.5107731 L39.6546966,13.5107731 L39.6546966,19.7363752 L42.2085415,19.7363752 L42.2085415,5.68314322 L39.6546966,5.68314322 L39.6546966,11.3003802 L33.5538449,11.3003802 L33.5538449,5.68314322 L31,5.68314322 L31,19.7363752 L33.5538449,19.7363752 Z M48.7530505,19.9594423 C49.7124314,19.9594423 50.5738474,19.9019856 51.3372983,19.7870722 C52.1007493,19.6721589 52.6716485,19.5741445 53.0499959,19.4930292 L53.0499959,19.4930292 L53.0499959,13.0646388 C53.0499959,12.4427545 52.9790558,11.8715674 52.8371755,11.3510773 C52.6952952,10.8305872 52.4588281,10.3878327 52.1277741,10.0228137 C51.7967202,9.65779468 51.3541888,9.373891 50.8001802,9.17110266 C50.2461715,8.96831432 49.5637949,8.86692015 48.7530505,8.86692015 C48.0774302,8.86692015 47.4423471,8.92099704 46.8478012,9.02915082 C46.2532553,9.1373046 45.8005896,9.24545839 45.4898043,9.35361217 L45.4898043,9.35361217 L45.7938334,11.3409379 C46.0911064,11.2327841 46.47621,11.1381496 46.9491442,11.0570342 C47.4220785,10.9759189 47.9423061,10.9353612 48.5098272,10.9353612 C48.9287118,10.9353612 49.2766563,10.9894381 49.5536606,11.0975919 C49.830665,11.2057457 50.0536197,11.3578369 50.2225248,11.5538657 C50.3914299,11.7498944 50.5096634,11.9763414 50.5772255,12.2332066 C50.6447875,12.4900718 50.6785685,12.7604563 50.6785685,13.0443599 L50.6785685,13.0443599 L50.6785685,13.4499366 C50.3407583,13.3688213 50.0232168,13.3113646 49.7259438,13.2775665 C49.4286709,13.2437685 49.1449103,13.2268695 48.8746622,13.2268695 C48.2936287,13.2268695 47.7362419,13.2843262 47.2025018,13.3992395 C46.6687618,13.5141529 46.1992056,13.7034221 45.7938334,13.9670469 C45.3884612,14.2306717 45.0675416,14.5720321 44.8310744,14.991128 C44.5946073,15.4102239 44.4763738,15.9239544 44.4763738,16.5323194 C44.4763738,17.1677229 44.5810949,17.7017322 44.7905372,18.1343473 C44.9999795,18.5669624 45.2904963,18.9184622 45.6620875,19.1888466 C46.0336787,19.4592311 46.4829662,19.6552598 47.00995,19.7769328 C47.5369339,19.8986058 48.1179674,19.9594423 48.7530505,19.9594423 Z M48.9557366,18.0126743 C48.3341659,18.0126743 47.8409631,17.9011407 47.4761281,17.6780735 C47.1112931,17.4550063 46.9288756,17.0528095 46.9288756,16.4714829 C46.9288756,16.17406 46.9964376,15.9273342 47.1315617,15.7313054 C47.2666858,15.5352767 47.4457252,15.3831855 47.6686799,15.2750317 C47.8916346,15.1668779 48.1416141,15.0925222 48.4186185,15.0519645 C48.6956228,15.0114068 48.969249,14.991128 49.2394972,14.991128 C49.5502825,14.991128 49.8340431,15.0114068 50.0907788,15.0519645 C50.3475145,15.0925222 50.5434444,15.1330798 50.6785685,15.1736375 L50.6785685,15.1736375 L50.6785685,17.8910013 C50.2867087,17.9721166 49.7124314,18.0126743 48.9557366,18.0126743 Z M60.6282041,20 C61.4389485,20 62.2125338,19.9391635 62.94896,19.8174905 C63.6853861,19.6958175 64.2968225,19.5606253 64.7832692,19.4119138 L64.7832692,19.4119138 L64.7832692,4 L62.3307673,4.40557668 L62.3307673,9.49556401 C62.0470068,9.34685256 61.7091966,9.21166033 61.3173368,9.08998733 C60.925477,8.96831432 60.4728114,8.90747782 59.9593399,8.90747782 C59.2026452,8.90747782 58.533781,9.03929024 57.9527475,9.30291508 C57.371714,9.56653992 56.8785112,9.94169835 56.473139,10.4283904 C56.0677668,10.9150824 55.7603595,11.4997888 55.5509172,12.1825095 C55.3414749,12.8652302 55.2367537,13.6256865 55.2367537,14.4638783 C55.2367537,15.3155894 55.3617435,16.0828052 55.611723,16.765526 C55.8617026,17.4482467 56.2197813,18.0295733 56.6859594,18.5095057 C57.1521374,18.9894381 57.7162804,19.3578369 58.3783883,19.6147022 C59.0404963,19.8715674 59.7904349,20 60.6282041,20 Z M60.6484727,17.8707224 C59.7431414,17.8707224 59.0337401,17.5631601 58.5202686,16.9480355 C58.0067972,16.3329109 57.7500614,15.4845796 57.7500614,14.4030418 C57.7500614,13.3620617 57.9561256,12.5373891 58.368254,11.9290241 C58.7803824,11.3206591 59.4323561,11.0164766 60.3241749,11.0164766 C60.7295471,11.0164766 61.1112726,11.0806929 61.4693514,11.2091255 C61.8274302,11.3375581 62.1145688,11.4761301 62.3307673,11.6248416 L62.3307673,11.6248416 L62.3307673,17.7084918 C62.1551061,17.7490494 61.9287732,17.7862273 61.6517689,17.8200253 C61.3747646,17.8538234 61.0403325,17.8707224 60.6484727,17.8707224 Z M72.5438948,20 C72.9087298,20 73.2668086,19.9797212 73.6181312,19.9391635 C73.9694538,19.8986058 74.2971296,19.8479087 74.6011588,19.7870722 C74.9051879,19.7262357 75.1754361,19.6586396 75.4119032,19.5842839 C75.6483703,19.5099282 75.8341659,19.4389523 75.96929,19.3713561 L75.96929,19.3713561 L75.6449922,17.3637516 C75.3612317,17.4854246 74.97275,17.600338 74.4795471,17.7084918 C73.9863443,17.8166455 73.4424699,17.8707224 72.847924,17.8707224 C71.8344935,17.8707224 71.0609082,17.6375158 70.5271681,17.1711027 C69.9934281,16.7046895 69.692777,16.0456274 69.625215,15.1939163 L69.625215,15.1939163 L76.6178855,15.1939163 C76.6313979,15.0587241 76.6415322,14.9066329 76.6482884,14.7376426 C76.6550446,14.5686523 76.6584227,14.416561 76.6584227,14.2813688 C76.6584227,12.4833122 76.2496724,11.1313899 75.4321718,10.225602 C74.6146712,9.31981411 73.4762509,8.86692015 72.016911,8.86692015 C71.3953403,8.86692015 70.787282,8.98521335 70.1927361,9.22179975 C69.5981902,9.45838614 69.0712063,9.80988593 68.6117845,10.2762991 C68.1523626,10.7427123 67.7841495,11.3274187 67.5071452,12.0304183 C67.2301409,12.7334178 67.0916387,13.5513308 67.0916387,14.4841572 C67.0916387,15.2817913 67.1997379,16.0152091 67.4159365,16.6844106 C67.632135,17.3536122 67.9631889,17.9349387 68.4090984,18.4283904 C68.8550078,18.921842 69.4225289,19.3071398 70.1116616,19.5842839 C70.8007944,19.861428 71.6115388,20 72.5438948,20 Z M74.2059209,13.3891001 L69.6454836,13.3891001 C69.6860208,13.078158 69.760339,12.7739755 69.8684383,12.4765526 C69.9765375,12.1791297 70.1285521,11.9155049 70.324482,11.6856781 C70.5204119,11.4558513 70.7602571,11.269962 71.0440177,11.1280101 C71.3277782,10.9860583 71.6588322,10.9150824 72.0371796,10.9150824 C72.4020146,10.9150824 72.716178,10.9792987 72.97967,11.1077313 C73.2431619,11.2361639 73.4661166,11.4119138 73.6485341,11.634981 C73.8309516,11.8580482 73.9694538,12.121673 74.0640406,12.4258555 C74.1586275,12.730038 74.2059209,13.0511196 74.2059209,13.3891001 L74.2059209,13.3891001 Z M81.6625174,20 C83.0542953,20 84.1251536,19.739755 84.8750921,19.2192649 C85.6250307,18.6987748 86,17.9315589 86,16.9176172 C86,16.4444444 85.9391942,16.0388678 85.8175825,15.7008872 C85.6959708,15.3629066 85.503419,15.0621039 85.2399271,14.7984791 C84.9764352,14.5348542 84.6420031,14.2982678 84.2366309,14.0887199 C83.8312587,13.8791719 83.3380559,13.6662442 82.7570224,13.4499366 C82.4056998,13.3282636 82.1084268,13.2099704 81.8652035,13.095057 C81.6219802,12.9801436 81.4260503,12.8652302 81.2774138,12.7503169 C81.1287773,12.6354035 81.0240562,12.5103507 80.9632503,12.3751584 C80.9024445,12.2399662 80.8720416,12.0844951 80.8720416,11.9087452 C80.8720416,11.5572455 81.0274343,11.2970004 81.3382196,11.1280101 C81.649005,10.9590199 82.0543772,10.8745247 82.5543363,10.8745247 C83.1083449,10.8745247 83.5947916,10.9252218 84.0136762,11.026616 C84.4325608,11.1280101 84.7771272,11.2395437 85.0473753,11.3612167 L85.0473753,11.3612167 L85.4932847,9.373891 C85.2095242,9.26573722 84.7838834,9.15420363 84.2163623,9.03929024 C83.6488412,8.92437685 83.0542953,8.86692015 82.4327246,8.86692015 C81.2030956,8.86692015 80.2302023,9.14744402 79.5140447,9.70849176 C78.7978872,10.2695395 78.4398084,11.0367554 78.4398084,12.0101394 C78.4398084,12.5103507 78.5175047,12.9328264 78.6728974,13.2775665 C78.8282901,13.6223067 79.0411105,13.9163498 79.3113586,14.1596958 C79.5816067,14.4030418 79.9025264,14.6159696 80.2741176,14.7984791 C80.6457088,14.9809886 81.0544591,15.1533587 81.5003685,15.3155894 C82.2300385,15.5859738 82.7536443,15.8360794 83.0711858,16.0659062 C83.3887274,16.295733 83.5474982,16.5863963 83.5474982,16.9378961 C83.5474982,17.3164343 83.3988617,17.583439 83.1015887,17.73891 C82.8043158,17.8943811 82.3313815,17.9721166 81.682786,17.9721166 C81.0341905,17.9721166 80.4565351,17.9045205 79.9498198,17.7693283 C79.4431046,17.634136 79.0073295,17.4921842 78.6424945,17.3434728 L78.6424945,17.3434728 L78.2168537,19.391635 C78.4465646,19.4862695 78.8451806,19.6113223 79.4127017,19.7667934 C79.9802227,19.9222645 80.7301613,20 81.6625174,20 Z" id="Hades" fill="#FFFFFF"></path>
        </g>
    </g>
</svg>