<?xml version="1.0" encoding="UTF-8"?>
<svg width="176px" height="24px" viewBox="0 0 176 24" version="1.1" xmlns="http://www.w3.org/2000/svg" xmlns:xlink="http://www.w3.org/1999/xlink">
    <title>logo</title>
    <defs>
        <linearGradient x1="-1.11022302e-14%" y1="50%" x2="100%" y2="50%" id="linearGradient-1">
            <stop stop-color="#5D7AD3" offset="0%"></stop>
            <stop stop-color="#6C5DD3" offset="100%"></stop>
        </linearGradient>
        <linearGradient x1="-1.11022302e-14%" y1="50%" x2="100%" y2="50%" id="linearGradient-2">
            <stop stop-color="#5D7AD3" offset="0%"></stop>
            <stop stop-color="#6C5DD3" offset="100%"></stop>
        </linearGradient>
    </defs>
    <g id="控件" stroke="none" stroke-width="1" fill="none" fill-rule="evenodd">
        <g id="navigation-bar" transform="translate(-32.000000, -28.000000)">
            <g id="logo" transform="translate(32.000000, 28.000000)">
                <rect id="矩形" x="0" y="0" width="176" height="24"></rect>
                <g fill="url(#linearGradient-1)" id="形状结合">
                    <path d="M19,0 C21.209139,0 23,1.790861 23,4 L23,22.5 C23,23.3284271 22.3284271,24 21.5,24 C20.6715729,24 20,23.3284271 20,22.5 L20,4 C20,3.44771525 19.5522847,3 19,3 C18.4871642,3 18.0644928,3.38604019 18.0067277,3.88337887 L18,4 L18,9.5 L18,9.5 C18,10.2796961 17.4051119,10.9204487 16.64446,10.9931334 L16.5,11 L16.5,11 L7.5,11 C6.67157288,11 6,10.3284271 6,9.5 C6,8.67157288 6.67157288,8 7.5,8 L15,8 L15,4 C15,1.790861 16.790861,0 19,0 Z M4,20 L4.00672773,20.1166211 C4.06449284,20.6139598 4.48716416,21 5,21 C5.55228475,21 6,20.5522847 6,20 L6,20 L6,14.5 C6,13.6715729 6.67157288,13 7.5,13 L16.5,13 C17.3284271,13 18,13.6715729 18,14.5 C18,15.3284271 17.3284271,16 16.5,16 L9,16 L9,20 C9,22.1421954 7.31603153,23.8910789 5.19964034,23.9951047 L5,24 C2.790861,24 1,22.209139 1,20 L1,20 L1,1.5 C1,0.671572875 1.67157288,1.52179594e-16 2.5,0 C3.32842712,-1.52179594e-16 4,0.671572875 4,1.5 L4,20 Z"></path>
                </g>
                <circle id="椭圆形" fill="url(#linearGradient-2)" cx="105" cy="18" r="2"></circle>
                <path d="M37.3576168,19.7690087 L37.3576168,13.2550529 L44.1736566,13.2550529 L44.1736566,19.7690087 L47.5235191,19.7690087 L47.5235191,4 L44.1736566,4 L44.1736566,10.506256 L37.3576168,10.506256 L37.3576168,4 L34,4 L34,19.7690087 L37.3576168,19.7690087 Z M53.624606,19.9923003 C54.2139337,19.9923003 54.7334726,19.9140199 55.1832226,19.7574591 C55.6329727,19.6008983 56.0181035,19.3827398 56.338615,19.1029836 C56.6591266,18.8232275 56.9150188,18.4985563 57.1062919,18.1289702 L57.1062919,18.1289702 L57.1993436,18.1289702 L57.1993436,19.7690087 L60.3320854,19.7690087 L60.3320854,11.7921078 C60.3320854,11.0888675 60.1950926,10.4844402 59.9211069,9.97882579 C59.6471212,9.47321142 59.2736219,9.0587103 58.8006089,8.73532243 C58.3275959,8.41193455 57.7873789,8.1732435 57.1799578,8.01924928 C56.5725368,7.86525505 55.9379756,7.78825794 55.2762744,7.78825794 C54.3250788,7.78825794 53.4889056,7.9307026 52.7677546,8.21559192 C52.0466037,8.50048123 51.4585684,8.90599936 51.0036488,9.43214629 C50.5487292,9.95829323 50.2437263,10.5806866 50.08864,11.2993263 L50.08864,11.2993263 L53.1438387,11.545717 C53.2575686,11.1555983 53.490198,10.8309272 53.8417268,10.5717036 C54.1932555,10.3124799 54.6662685,10.1828681 55.2607657,10.1828681 C55.8242457,10.1828681 56.2597795,10.3163298 56.5673672,10.5832531 C56.8749549,10.8501765 57.0287487,11.2274623 57.0287487,11.7151107 L57.0287487,11.7151107 L57.0287487,11.761309 C57.0287487,12.0128329 56.9331122,12.2027591 56.7418392,12.3310876 C56.5505662,12.4594161 56.2429785,12.5556625 55.8190762,12.6198268 C55.3951738,12.683991 54.8368634,12.7520051 54.1441449,12.8238691 C53.5548172,12.8803337 52.9926297,12.9778633 52.4575822,13.1164581 C51.9225347,13.2550529 51.4456445,13.4603786 51.0269117,13.732435 C50.6081789,14.0044915 50.2773283,14.3638114 50.0343598,14.8103946 C49.7913914,15.2569779 49.6699072,15.8087905 49.6699072,16.4658325 C49.6699072,17.2460699 49.8417944,17.8966955 50.1855689,18.4177093 C50.5293434,18.9387231 50.9984792,19.3314084 51.5929764,19.5957652 C52.1874737,19.8601219 52.8646835,19.9923003 53.624606,19.9923003 Z M54.570632,17.7285852 C54.064017,17.7285852 53.6465766,17.6118062 53.3183107,17.3782483 C52.9900449,17.1446904 52.825912,16.8046198 52.825912,16.3580366 C52.825912,16.0500481 52.9060398,15.7921078 53.0662956,15.5842156 C53.2265514,15.3763234 53.4514264,15.2107796 53.7409207,15.0875842 C54.030415,14.9643888 54.3690199,14.8745589 54.7567355,14.8180943 C54.9376694,14.7924286 55.1392815,14.7629131 55.3615718,14.7295476 C55.5838621,14.6961822 55.8061523,14.6576837 56.0284426,14.614052 C56.2507328,14.5704203 56.4510525,14.5216554 56.6294017,14.4677575 C56.8077509,14.4138595 56.9486209,14.3535451 57.0520117,14.2868142 L57.0520117,14.2868142 L57.0520117,15.5418672 C57.0520117,15.9576516 56.9460361,16.3298043 56.7340849,16.6583253 C56.5221337,16.9868463 56.2300547,17.2473532 55.8578477,17.439846 C55.4856408,17.6323388 55.0565689,17.7285852 54.570632,17.7285852 Z M67.2845866,19.9615014 C67.9256097,19.9615014 68.4697039,19.8562721 68.9168692,19.6458133 C69.3640345,19.4353545 69.7284871,19.1697145 70.0102271,18.8488932 C70.2919671,18.5280719 70.5103802,18.2034007 70.6654664,17.8748797 L70.6654664,17.8748797 L70.805044,17.8748797 L70.805044,19.7690087 L74.0618548,19.7690087 L74.0618548,4 L70.7662725,4 L70.7662725,9.92877767 L70.6654664,9.92877767 C70.5207193,9.61052294 70.3100605,9.28585178 70.03349,8.9547642 C69.7569196,8.62367661 69.3950517,8.34648701 68.9478864,8.12319538 C68.5007211,7.89990375 67.9437031,7.78825794 67.2768323,7.78825794 C66.4031799,7.78825794 65.6006087,8.01283285 64.8691186,8.46198268 C64.1376286,8.9111325 63.5521781,9.58614052 63.1127671,10.4870067 C62.6733561,11.387873 62.4536506,12.5158807 62.4536506,13.8710298 C62.4536506,15.190247 62.6668942,16.3028553 63.0933813,17.2088547 C63.5198684,18.114854 64.098857,18.8001283 64.8303471,19.2646776 C65.5618371,19.7292268 66.379917,19.9615014 67.2845866,19.9615014 Z M68.3314187,17.3512993 C67.7886169,17.3512993 67.3324049,17.2037215 66.9627827,16.9085659 C66.5931605,16.6134103 66.3114206,16.2027591 66.1175628,15.6766121 C65.923705,15.1504652 65.8267761,14.5434713 65.8267761,13.8556304 C65.8267761,13.1729227 65.9224126,12.5723452 66.1136856,12.053898 C66.3049586,11.5354508 66.5866986,11.1299326 66.9589056,10.8373436 C67.3311125,10.5447546 67.7886169,10.3984601 68.3314187,10.3984601 C68.8638814,10.3984601 69.3162162,10.5396214 69.6884232,10.8219442 C70.0606301,11.1042669 70.3449549,11.5046519 70.5413974,12.0230991 C70.73784,12.5415464 70.8360613,13.1523901 70.8360613,13.8556304 C70.8360613,14.5588707 70.7365476,15.172281 70.5375203,15.6958614 C70.3384929,16.2194418 70.0541682,16.6262432 69.684546,16.9162656 C69.3149238,17.2062881 68.8638814,17.3512993 68.3314187,17.3512993 Z M82.1945638,20 C83.1767765,20 84.043967,19.8498556 84.7961352,19.5495669 C85.5483034,19.2492782 86.1634788,18.8283606 86.6416614,18.2868142 C87.1198439,17.7452679 87.4364783,17.1100417 87.5915645,16.3811357 L87.5915645,16.3811357 L84.5363658,16.1809432 C84.4226359,16.4786654 84.2572106,16.7301893 84.0400899,16.9355149 C83.8229692,17.1408406 83.5619073,17.2948348 83.2569044,17.3974976 C82.9519015,17.5001604 82.6158813,17.5514918 82.2488439,17.5514918 C81.6957031,17.5514918 81.2175205,17.4359962 80.8142963,17.2050048 C80.4110721,16.9740135 80.0996073,16.6454925 79.8799018,16.2194418 C79.6601963,15.7933911 79.5503436,15.2877767 79.5503436,14.7025987 L79.5503436,14.7025987 L79.5495697,14.6953301 L87.6613533,14.6948989 L87.6613533,13.7940327 C87.6613533,12.7879371 87.5191909,11.9088868 87.2348662,11.1568816 C86.9505414,10.4048765 86.5537792,9.77991659 86.0445794,9.28200192 C85.5353796,8.78408726 84.9408824,8.41065127 84.2610877,8.16169394 C83.5812931,7.91273661 82.8485107,7.78825794 82.0627405,7.78825794 C80.8944242,7.78825794 79.877317,8.04491498 79.0114189,8.55822907 C78.1455208,9.07154315 77.4747729,9.7876163 76.9991751,10.7064485 C76.5235773,11.6252807 76.2857785,12.692974 76.2857785,13.9095284 C76.2857785,15.1568816 76.5235773,16.2361245 76.9991751,17.147257 C77.4747729,18.0583895 78.1532751,18.7616298 79.0346819,19.2569779 C79.9160886,19.752326 80.9693826,20 82.1945638,20 Z M79.5590474,12.5723714 C79.5894316,12.1823574 79.6976755,11.8234566 79.883779,11.4956689 C80.1008997,11.1132499 80.4020254,10.807828 80.7871562,10.5794033 C81.172287,10.3509785 81.6155752,10.2367661 82.1170206,10.2367661 C82.5977879,10.2367661 83.0203979,10.3407122 83.3848506,10.5486044 C83.7493032,10.7564966 84.0349203,11.0426692 84.241702,11.4071222 C84.4484836,11.7715752 84.5518744,12.1899262 84.5518744,12.6621752 L84.5518744,12.6621752 L79.5545324,12.6630991 L79.5590474,12.5723714 Z M94.696051,20 C95.7299592,20 96.6436755,19.8370228 97.4372001,19.5110683 C98.2307246,19.1851139 98.8562391,18.7295476 99.3137434,18.1443696 C99.7712478,17.5591915 100,16.8790504 100,16.1039461 C100,15.2518447 99.7156752,14.5640038 99.1470257,14.0404235 C98.5783762,13.5168431 97.7150629,13.1369907 96.5570857,12.9008662 L96.5570857,12.9008662 L94.4013872,12.4696824 C93.8482463,12.3516201 93.4579459,12.1950594 93.2304861,12 C93.0030263,11.8049406 92.8892964,11.5662496 92.8892964,11.2839269 C92.8892964,10.9297401 93.0650608,10.6461341 93.4165896,10.4331088 C93.7681184,10.2200834 94.1997751,10.1135707 94.7115596,10.1135707 C95.0941056,10.1135707 95.4236639,10.1764517 95.7002343,10.3022137 C95.9768048,10.4279756 96.2003874,10.5948027 96.3709823,10.8026949 C96.5415771,11.0105871 96.6527222,11.2428617 96.7044176,11.4995188 L96.7044176,11.4995188 L99.7285991,11.3147257 C99.583852,10.2264998 99.0785293,9.36669875 98.2126312,8.73532243 C97.3467331,8.1039461 96.1616158,7.78825794 94.6572794,7.78825794 C93.6388799,7.78825794 92.7510112,7.93711902 91.9936735,8.23484119 C91.2363357,8.53256336 90.6495928,8.95604748 90.2334448,9.50529355 C89.8172967,10.0545396 89.6092227,10.7090151 89.6092227,11.4687199 C89.6092227,12.3516201 89.8922551,13.0779596 90.4583198,13.6477382 C91.0243845,14.2175168 91.8889903,14.6179018 93.052137,14.8488932 L93.052137,14.8488932 L95.1147838,15.2569779 C95.6317379,15.3596407 96.0142839,15.5072185 96.2624219,15.6997113 C96.5105599,15.892204 96.6372136,16.1373115 96.6423832,16.4350337 C96.6372136,16.7892204 96.4575721,17.0779596 96.1034585,17.3012512 C95.749345,17.5245428 95.2827939,17.6361886 94.7038053,17.6361886 C94.1144776,17.6361886 93.6311256,17.51171 93.2537491,17.2627526 C92.8763726,17.0137953 92.6385737,16.6506256 92.5403524,16.1732435 L92.5403524,16.1732435 L89.2912959,16.3426372 C89.4515517,17.4719281 89.9982307,18.3638114 90.9313328,19.0182868 C91.8644349,19.6727623 93.119341,20 94.696051,20 Z" id="Hades" fill="#11142D" fill-rule="nonzero"></path>
            </g>
        </g>
    </g>
</svg>